<svg version="1.1" id="Layer_1" xmlns="http://www.w3.org/2000/svg" xmlns:xlink="http://www.w3.org/1999/xlink" x="0px" y="0px"
	 width="500px" height="500px" viewBox="0 0 500 500" style="enable-background:new 0 0 500 500;" xml:space="preserve">
<style type="text/css">
	
		.st0{fill:url(#SVGID_1_);stroke:url(#SVGID_00000115498977726750759370000016092194681074742926_);stroke-width:0.5;stroke-miterlimit:10;}
	
		.st1{fill:url(#SVGID_00000037688098566157413040000017823137989467857051_);stroke:url(#SVGID_00000109743720945233094300000003223977402225196465_);stroke-width:0.5;stroke-miterlimit:10;}
	.st2{fill:url(#SVGID_00000098181682595553810150000003414138413867344316_);}
	.st3{fill:url(#SVGID_00000147215501431340895060000016777517037743014278_);}
	.st4{fill:url(#SVGID_00000147906508404457602930000001934729774444217242_);}
	.st5{fill:#3D58A6;}
	.st6{fill:url(#SVGID_00000104700330130632404650000018032707876582658957_);}
	.st7{fill:url(#SVGID_00000083056167517040248280000004726597170046070420_);}
	.st8{fill:url(#SVGID_00000162336168288236192200000014194202012030782887_);}
	.st9{fill:url(#SVGID_00000011728569504088521340000001964179975784519304_);}
	.st10{fill:url(#SVGID_00000125573237684369472520000005546420022799297457_);}
	.st11{fill:#EE3C23;}
	.st12{fill:url(#SVGID_00000114756768081058512940000002015661445819296171_);}
</style>
<g>
	<radialGradient id="SVGID_1_" cx="131.3255" cy="80.5781" r="123.5801" gradientUnits="userSpaceOnUse">
		<stop  offset="0" style="stop-color:#EC2024"/>
		<stop  offset="1" style="stop-color:#BB2026"/>
	</radialGradient>
	
		<radialGradient id="SVGID_00000182502068282760412380000005053504600399696039_" cx="106.6879" cy="153.3826" r="123.828" gradientUnits="userSpaceOnUse">
		<stop  offset="0" style="stop-color:#BB2026"/>
		<stop  offset="1" style="stop-color:#EC2024"/>
	</radialGradient>
	
		<path style="fill:url(#SVGID_1_);stroke:url(#SVGID_00000182502068282760412380000005053504600399696039_);stroke-width:0.5;stroke-miterlimit:10;" d="
		M93.2,209.2c2.6-0.1,5.3-0.3,7.9-0.4c-18.5,6.6-39.7,5.9-59.4,6.9c-13.2,5,11.7,12.7,17.5,13.9c22.5,4.5,45.2,0.2,67.1-5.4
		c-17.3,11.5-38.6,12.1-58.2,17.3c-12.3,7.2,12.9,11.3,19.1,10.6c22-0.1,42.5-7.5,62.7-15.4c-14.8,12.9-35.1,18.5-53,26.2
		c-4.9,2.2-0.4,7.1,3.3,7.1c25,2.9,47.9-9.5,69.3-20.8c-12.2,10.9-24.9,20.8-39.5,28.1c-9.4,6.8,5.5,9.1,11.2,6.7
		c17.3-3.7,32-12.9,45.9-23.4c-6.9,9.6-18,16.4-26.3,25.1c-3.7,2.9-1.6,5.6,1.9,6.5c18.1-0.2,31.8-15,45-25.7
		c-1.6,8.9-30.6,31.7-4.2,23.5c15.4,2.6,6.2-48,8.5-54.4c-16.9-0.5-31.8-15.3-31.9-32.2c0.1-24.3,20.2-41.6-7.5-61.3
		C126.9,107,79.5,70.7,53.9,17.4C43.5,5.7,44.1,31.6,47.3,38c7.3,25.3,26.2,44.2,42,64.4C68,89.4,47,67,31.9,45.3
		c-9.9-11.4-9.3,8.5-5.5,15c10.3,25.1,29.7,43.6,49.4,61.4c-22-12.3-43.2-26.1-59.9-45.4c-1.9-2.8-7.4-4.8-6.9,0.3
		c0.6,16.6,11.9,29.9,24.3,39.7c7.3,7.2,53,35.5,23.9,22.7c-17.2-7.4-34.7-15.1-49.1-27.3c-18.4-7,2.7,21.7,8.5,25.1
		c14.6,13.2,32.3,21.6,50.4,28.9c-22.7,1.3-42.7-12.5-64-15.9c5.7,27.2,48.7,33.6,72.2,39.3c-18.2,3.4-36.5-0.9-54.4-4
		c-17.1,4.2,14.5,17.7,20.9,19.3C58.4,209.4,75.8,209.9,93.2,209.2z"/>
	
		<radialGradient id="SVGID_00000051372129946230598650000000728277709307791510_" cx="366.6598" cy="94.9973" r="123.5801" gradientUnits="userSpaceOnUse">
		<stop  offset="0" style="stop-color:#EC2024"/>
		<stop  offset="1" style="stop-color:#BB2026"/>
	</radialGradient>
	
		<radialGradient id="SVGID_00000110435598217430349000000016448990472489906312_" cx="394.0209" cy="153.043" r="123.828" gradientUnits="userSpaceOnUse">
		<stop  offset="0" style="stop-color:#BB2026"/>
		<stop  offset="1" style="stop-color:#EC2024"/>
	</radialGradient>
	
		<path style="fill:url(#SVGID_00000051372129946230598650000000728277709307791510_);stroke:url(#SVGID_00000110435598217430349000000016448990472489906312_);stroke-width:0.5;stroke-miterlimit:10;" d="
		M407.5,208.9c-2.6-0.1-5.3-0.3-7.9-0.4c18.5,6.6,39.7,5.9,59.4,6.9c13.2,5-11.7,12.7-17.5,13.9c-22.5,4.5-45.2,0.2-67.1-5.4
		c17.3,11.5,38.6,12.1,58.2,17.3c12.3,7.2-12.9,11.3-19.1,10.6c-22-0.1-42.5-7.5-62.7-15.4c14.8,12.9,35.1,18.5,53,26.2
		c4.9,2.2,0.4,7.1-3.3,7.1c-25,2.9-47.9-9.5-69.3-20.8c12.2,10.9,24.9,20.8,39.5,28.1c9.4,6.8-5.5,9.1-11.2,6.7
		c-17.3-3.7-32-12.9-45.9-23.4c6.9,9.6,18,16.4,26.3,25.1c3.7,2.9,1.6,5.6-1.9,6.5c-18.1-0.2-31.8-15-45-25.7
		c1.6,8.9,30.6,31.7,4.2,23.5c-15.4,2.6-6.2-48-8.5-54.4c16.9-0.5,31.8-15.3,31.9-32.2c-0.1-24.3-20.2-41.6,7.5-61.3
		c45.7-35.2,93.2-71.5,118.8-124.8c10.4-11.7,9.7,14.2,6.5,20.6c-7.3,25.3-26.2,44.2-42,64.4c21.3-12.9,42.4-35.3,57.4-57.1
		c9.9-11.4,9.3,8.5,5.5,15c-10.3,25.1-29.7,43.6-49.4,61.4c22-12.3,43.2-26.1,59.9-45.4c1.9-2.8,7.4-4.8,6.9,0.3
		c-0.6,16.6-11.9,29.9-24.3,39.7c-7.3,7.2-53,35.5-23.9,22.7c17.2-7.4,34.7-15.1,49.1-27.3c18.4-7-2.7,21.7-8.5,25.1
		c-14.6,13.2-32.3,21.6-50.4,28.9c22.7,1.3,42.7-12.5,64-15.9c-5.7,27.2-48.7,33.6-72.2,39.3c18.2,3.4,36.5-0.9,54.4-4
		c17.1,4.2-14.5,17.7-20.9,19.3C442.3,209.1,424.9,209.6,407.5,208.9z"/>
	<g>
		
			<radialGradient id="SVGID_00000111914333857790278720000015121994627341336243_" cx="251.3034" cy="246.5751" r="47.9004" gradientUnits="userSpaceOnUse">
			<stop  offset="0" style="stop-color:#FFFFFF"/>
			<stop  offset="0.2613" style="stop-color:#FAFAFA"/>
			<stop  offset="0.5767" style="stop-color:#EBEBEB"/>
			<stop  offset="0.9189" style="stop-color:#D3D3D3"/>
			<stop  offset="1" style="stop-color:#CCCCCC"/>
		</radialGradient>
		<path style="fill:url(#SVGID_00000111914333857790278720000015121994627341336243_);" d="M288.7,235.6c0,1.6,0,2.9,0,4.2
			c0,10.6,0.1,21.1,0,31.7c-0.2,18.9-14.7,33.3-33.6,33.6c-2.8,0-5.5,0-8.3,0c-19.8-0.2-34.2-14.6-34.3-34.4c0-10.4,0-20.9,0-31.3
			c0-1.3-0.1-2.5-0.2-3.8L288.7,235.6z"/>
	</g>
	<g>
		
			<radialGradient id="SVGID_00000121249770764498044440000000408103518662543242_" cx="250.7628" cy="361.6771" r="107.2122" gradientUnits="userSpaceOnUse">
			<stop  offset="0" style="stop-color:#364B9F"/>
			<stop  offset="1" style="stop-color:#1A4176"/>
		</radialGradient>
		<path style="fill:url(#SVGID_00000121249770764498044440000000408103518662543242_);" d="M313.2,486.7c-3.6,2.3-122.1,2.1-125.5,0
			c2.3-0.6,3.7-1.1,5.2-1.2c10.7-0.7,21.2-2.6,31.3-6.3c2.8-1,5.5-2.3,8.2-3.7c6.4-3.3,10.2-8.5,10.8-15.9
			c0.5-7.1,1.5-14.1,1.7-21.1c0.7-29.9,1.5-59.7-0.9-89.5c-0.5-6.6-2.4-12.6-6.4-18c-20.9-28.7-41.7-57.4-62.6-86.1
			c-2.3-3.2-4.7-6.3-7.4-9.8c15.3,0,30,0,45,0c0.1,1.3,0.2,2.6,0.2,3.8c0,10.4,0,20.9,0,31.3c0.1,19.8,14.5,34.3,34.3,34.4
			c2.8,0,5.5,0,8.3,0c18.9-0.3,33.4-14.7,33.6-33.6c0.1-10.6,0-21.1,0-31.7c0-1.3,0-2.6,0-4.2c15,0,29.8,0,45,0
			c-0.9,1.3-1.5,2.2-2.2,3.1c-19.9,27.1-40.1,53.9-59.6,81.2c-15,21.1-14.6,16.9-15.3,44.6c-0.7,29.9,0.5,59.9,0.9,89.9
			c0,1.8,0.5,3.6,0.6,5.4c0.5,8.2,4.9,13.5,12,17c10.1,5.1,21,7.3,32.1,8.7c2.4,0.3,4.8,0.3,7.2,0.6
			C311,485.7,312.1,486.3,313.2,486.7z"/>
		
			<radialGradient id="SVGID_00000174567366846818038840000008065081279796828811_" cx="250.7628" cy="361.6771" r="107.2122" gradientUnits="userSpaceOnUse">
			<stop  offset="0" style="stop-color:#1A4176"/>
			<stop  offset="1" style="stop-color:#4560CC"/>
		</radialGradient>
		<path style="fill:url(#SVGID_00000174567366846818038840000008065081279796828811_);" d="M212.1,235.5c0,0.3,0,0.5,0,0.8
			c0.1,0.9,0.1,1.7,0.1,2.6c0,4.2,0,8.5,0,12.7c0,6.1,0,12.4,0,18.6c0.1,20.1,14.7,34.8,34.8,34.9c1.5,0,3,0,4.5,0
			c1.3,0,2.5,0,3.8,0c19.2-0.3,33.9-14.9,34.1-34.1c0.1-7.3,0.1-14.7,0-21.8c0-3.3,0-6.6,0-9.8l0-2.8l0-0.9h43.6
			c-0.1,0.1-0.2,0.3-0.3,0.4c-0.5,0.7-0.9,1.3-1.4,1.9c-6,8.2-12.2,16.6-18.2,24.6c-13.7,18.5-27.8,37.6-41.4,56.6
			c-1.7,2.4-3.3,4.5-4.6,6.4c-10.1,13.9-10.1,13.9-10.7,36.6l0,1.9c-0.5,21.2-0.1,42.7,0.4,63.6c0.2,8.6,0.4,17.6,0.5,26.4
			c0,1,0.2,2,0.3,3c0.1,0.8,0.3,1.6,0.3,2.4c0.4,7.8,4.5,13.5,12.3,17.4c8.8,4.4,18.8,7.1,32.3,8.8c1.1,0.1,2.3,0.2,3.4,0.3
			c1.2,0.1,2.5,0.2,3.7,0.3c0.6,0.1,1.2,0.3,1.8,0.6c-5.8,0.8-28.6,1.3-58.6,1.3c-30.3,0-55.8-0.5-63-1.2c1.1-0.3,2.1-0.6,2.9-0.6
			c11.7-0.8,22-2.9,31.4-6.3c2.4-0.9,5.1-2.1,8.2-3.7c6.8-3.5,10.5-9,11-16.3c0.2-2.6,0.4-5.2,0.7-7.7c0.4-4.4,0.9-9,1-13.5l0.1-2.4
			c0.7-28.6,1.4-58.2-1-87.2c-0.6-7.2-2.7-13.1-6.5-18.3c-13.3-18.3-26.8-36.8-39.8-54.8c-7.6-10.4-15.2-20.9-22.7-31.3
			c-1.6-2.1-3.2-4.2-4.8-6.5c-0.6-0.8-1.3-1.7-1.9-2.6H212.1 M212.5,235c-15.1,0-29.7,0-45,0c2.7,3.6,5.1,6.7,7.4,9.8
			c20.9,28.7,41.7,57.4,62.6,86.1c3.9,5.4,5.8,11.4,6.4,18c2.4,29.8,1.6,59.7,0.9,89.5c-0.2,7.1-1.2,14.1-1.7,21.1
			c-0.5,7.4-4.3,12.6-10.8,15.9c-2.7,1.4-5.4,2.7-8.2,3.7c-10.1,3.7-20.6,5.5-31.3,6.3c-1.5,0.1-2.9,0.7-5.2,1.2
			c1.7,1.1,33.9,1.7,65.3,1.7c29.6,0,58.4-0.5,60.2-1.6c-1.1-0.4-2.2-1-3.3-1.2c-2.4-0.3-4.8-0.3-7.2-0.6c-11.1-1.4-22-3.7-32.1-8.7
			c-7.1-3.5-11.5-8.8-12-17c-0.1-1.8-0.6-3.6-0.6-5.4c-0.4-30-1.7-60-0.9-89.9c0.7-27.7,0.2-23.6,15.3-44.6
			c19.5-27.3,39.7-54.2,59.6-81.2c0.7-0.9,1.3-1.9,2.2-3.1c-15.3,0-30,0-45,0c0,1.6,0,2.9,0,4.2c0,10.6,0.1,21.1,0,31.7
			c-0.2,18.9-14.7,33.3-33.6,33.6c-1.3,0-2.5,0-3.8,0c-1.5,0-3,0-4.5,0c-19.8-0.2-34.2-14.6-34.3-34.4c0-10.4,0-20.9,0-31.3
			C212.7,237.5,212.6,236.3,212.5,235L212.5,235z"/>
	</g>
	<g>
		<path class="st5" d="M289.1,235.1c-1.1-8.8-1-19.8-1.9-28.6c-0.9-9.3-1.2-18.7-2.7-27.9c-2.8-17.8-16.3-27.8-34.3-26.4
			c-7.7,0.6-15.2,2.4-21.9,6.4c-1.8,1.1-4.1,2.2-5.1,3.9c-2.3,4-6.1,4.7-9.8,5.9c-16.1,5.3-19.1,16.3-7.5,30.2
			c0.1-0.1,0.4-0.3,0.4-0.4c0.1-7.5,2.8-10.8,9.3-11c7.5-0.2,12.8,4.1,13.2,11.2c0.2,3-0.3,6.3-1.2,9.2c-3.1,10.2-7.6,19.7-15,27.5
			H289.1z"/>
	</g>
	
		<radialGradient id="SVGID_00000096055717166454755370000015368824397081774237_" cx="250.7931" cy="252.0532" r="5.5402" gradientUnits="userSpaceOnUse">
		<stop  offset="0" style="stop-color:#EC2024"/>
		<stop  offset="1" style="stop-color:#BB2026"/>
	</radialGradient>
	<polygon style="fill:url(#SVGID_00000096055717166454755370000015368824397081774237_);" points="250.8,246.7 252.5,250.2 
		256.5,250.8 253.6,253.5 254.3,257.5 250.8,255.6 247.3,257.5 248,253.5 245.1,250.8 249,250.2 	"/>
	
		<radialGradient id="SVGID_00000162345314501745354800000005777466935516635047_" cx="250.7931" cy="266.611" r="5.5171" gradientUnits="userSpaceOnUse">
		<stop  offset="0" style="stop-color:#EC2024"/>
		<stop  offset="1" style="stop-color:#BB2026"/>
	</radialGradient>
	<polygon style="fill:url(#SVGID_00000162345314501745354800000005777466935516635047_);" points="250.8,261.3 252.5,264.8 
		256.5,265.3 253.6,268.1 254.3,272 250.8,270.1 247.3,272 248,268.1 245.1,265.3 249,264.8 	"/>
	
		<radialGradient id="SVGID_00000023242928420648903890000009070142738038154149_" cx="250.7931" cy="281.0626" r="5.5171" gradientUnits="userSpaceOnUse">
		<stop  offset="0" style="stop-color:#EC2024"/>
		<stop  offset="1" style="stop-color:#BB2026"/>
	</radialGradient>
	<polygon style="fill:url(#SVGID_00000023242928420648903890000009070142738038154149_);" points="250.8,275.7 252.5,279.2 
		256.5,279.8 253.6,282.5 254.3,286.4 250.8,284.6 247.3,286.4 248,282.5 245.1,279.8 249,279.2 	"/>
	<g>
		
			<radialGradient id="SVGID_00000114772422308441020970000018328548708434815155_" cx="260.3814" cy="154.9254" r="76.5463" gradientUnits="userSpaceOnUse">
			<stop  offset="0" style="stop-color:#4661CF"/>
			<stop  offset="1" style="stop-color:#1A4176"/>
		</radialGradient>
		<path style="fill:url(#SVGID_00000114772422308441020970000018328548708434815155_);" d="M289.1,235.1c-1.1-8.8-1-19.8-1.9-28.6
			c-0.9-9.3-1.2-18.7-2.7-27.9c-2.8-17.8-16.3-27.8-34.3-26.4c-7.7,0.6-15.2,2.4-21.9,6.4c-1.8,1.1-4.1,2.2-5.1,3.9
			c-2.3,4-6.1,4.7-9.8,5.9c-16.1,5.3-19.1,16.3-7.5,30.2c0.1-0.1,0.4-0.3,0.4-0.4c0.1-7.5,2.8-10.8,9.3-11
			c7.5-0.2,12.8,4.1,13.2,11.2c0.2,3-0.3,6.3-1.2,9.2c-3.1,10.2-7.6,19.7-15,27.5H289.1z"/>
		
			<radialGradient id="SVGID_00000118366242892416390380000006748866573540360124_" cx="243.9659" cy="193.5368" r="43.3403" gradientUnits="userSpaceOnUse">
			<stop  offset="0" style="stop-color:#1A4176"/>
			<stop  offset="1" style="stop-color:#4560CC"/>
		</radialGradient>
		<path style="fill:url(#SVGID_00000118366242892416390380000006748866573540360124_);" d="M253.6,152.5c16.2,0,27.8,10,30.3,26.1
			c0.9,5.9,1.4,12,1.8,17.9c0.2,3.3,0.5,6.7,0.8,10c0.4,4,0.6,8.6,0.8,13c0.2,5.1,0.5,10.4,1,15h-74.8c6.3-6.9,10.8-15.4,14.3-26.8
			c1-3.1,1.4-6.3,1.2-9.4c-0.4-7.1-5.5-11.7-13.1-11.7c-0.2,0-0.4,0-0.6,0c-6.6,0.2-9.5,3.5-9.7,11c-5.3-6.6-7.4-12.6-6-17.6
			c1.4-4.8,6.1-8.7,13.7-11.2c0.4-0.1,0.9-0.3,1.3-0.4c3.3-1,6.6-2.1,8.7-5.7c0.7-1.3,2.4-2.2,3.9-3.1c0.3-0.2,0.7-0.4,1-0.6
			c6-3.6,13.1-5.7,21.7-6.4C251.3,152.6,252.5,152.5,253.6,152.5 M253.6,152c-1.1,0-2.3,0-3.5,0.1c-7.7,0.6-15.2,2.4-21.9,6.4
			c-1.8,1.1-4.1,2.2-5.1,3.9c-2.3,4-6.1,4.7-9.8,5.9c-16.1,5.3-19.1,16.3-7.5,30.2c0.1-0.1,0.4-0.3,0.4-0.4c0.1-7.5,2.8-10.8,9.3-11
			c0.2,0,0.4,0,0.6,0c7.1,0,12.2,4.3,12.6,11.2c0.2,3-0.3,6.3-1.2,9.2c-3.1,10.2-7.6,19.7-15,27.5h76.5c-1.1-8.8-1-19.8-1.9-28.6
			c-0.9-9.3-1.2-18.7-2.7-27.9C281.8,161.9,269.9,152,253.6,152L253.6,152z"/>
	</g>
	<g>
		<path class="st11" d="M230.6,225.6l15.3,7.8c2.2-1.8,3.7-2.5,5-2.5c1.4,0,2.7,0.8,4.6,2.6l15.4-7.8v20.9l-15.3-7.7
			c-1.8,1.6-3.3,2.6-4.9,2.6c-1.6,0-3-1-4.8-2.6l-15.4,7.8V225.6z"/>
		<path class="st11" d="M230.9,226c5.2,2.6,10.2,5.2,15.1,7.6c2.1-1.7,3.6-2.6,5-2.6c1.4,0,2.8,0.9,4.6,2.6c5-2.5,9.9-5,15.2-7.7
			c0,6.8,0,13.3,0,20.1c-5.2-2.6-10.1-5.1-15.1-7.6c-2,1.8-3.4,2.6-4.8,2.6c-1.4,0-2.8-0.9-4.7-2.7c-5,2.5-9.9,5-15.2,7.7
			C230.9,239.4,230.9,232.9,230.9,226 M230.4,225.2v0.8v20.2v0.8l0.7-0.4l8.3-4.2l6.6-3.3c1.7,1.5,3.2,2.6,4.8,2.6
			c1.6,0,3.1-1,4.9-2.5l14.8,7.5l0.7,0.4v-0.8V226v-0.8l-0.7,0.4l-6.9,3.5l-8,4c-1.9-1.8-3.3-2.5-4.7-2.5c-1.6,0-3.2,1-5.1,2.5
			l-13.2-6.7l-1.6-0.8L230.4,225.2L230.4,225.2z"/>
	</g>
	
		<radialGradient id="SVGID_00000071561118617719411250000000193385703349197494_" cx="250.7931" cy="236.0714" r="25.7435" gradientUnits="userSpaceOnUse">
		<stop  offset="0" style="stop-color:#EC2024"/>
		<stop  offset="1" style="stop-color:#BB2026"/>
	</radialGradient>
	<path style="fill:url(#SVGID_00000071561118617719411250000000193385703349197494_);" d="M255.6,233.7c5-2.5,9.9-5,15.2-7.7
		c0,6.8,0,13.3,0,20.1c-5.2-2.6-10.1-5.1-15.1-7.6c-4,3.5-5.7,3.5-9.6,0c-5,2.5-9.9,5-15.2,7.7c0-6.8,0-13.2,0-20.2
		c5.2,2.6,10.2,5.2,15.1,7.6C250.2,230.2,252,230.2,255.6,233.7z"/>
</g>
</svg>
